<svg width="28" height="28" viewBox="0 0 28 28" fill="none" xmlns="http://www.w3.org/2000/svg">
<g clip-path="url(#clip0_411_224)">
<rect width="64" height="64" transform="translate(-28 -22)" fill="#EB5547"/>
<path fill-rule="evenodd" clip-rule="evenodd" d="M0.894438 2.26104C0.525912 1.52399 -0.525893 1.52399 -0.894416 2.26104L-10.2111 20.8945C-10.7051 21.8824 -11.9065 22.2829 -12.8944 21.7889C-13.8824 21.2949 -14.2828 20.0936 -13.7888 19.1056L-4.47212 0.472183C-2.6295 -3.21306 2.62953 -3.21305 4.47215 0.472185L12.9597 17.4473C13.1291 17.786 13.4753 18 13.8541 18H20C21.1046 18 22 18.8955 22 20C22 21.1046 21.1046 22 20 22H13.8541C11.9603 22 10.2289 20.93 9.38198 19.2361L0.894438 2.26104Z" fill="url(#paint0_linear_411_224)"/>
<path fill-rule="evenodd" clip-rule="evenodd" d="M6.64771 13.7546C6.66692 13.8016 6.68805 13.8483 6.71113 13.8945L9.38195 19.2361C10.2289 20.93 11.9602 22 13.8541 22H20C21.1046 22 22 21.1046 22 20C22 18.8955 21.1046 18 20 18H13.8541C13.8369 18 13.8198 17.9996 13.8027 17.9987C10.7366 17.946 8.0708 16.2505 6.64771 13.7546Z" fill="white"/>
</g>
<defs>
<linearGradient id="paint0_linear_411_224" x1="-14" y1="20" x2="22" y2="20" gradientUnits="userSpaceOnUse">
<stop stop-color="#365463"/>
<stop offset="1" stop-color="#365463" stop-opacity="0"/>
</linearGradient>
<clipPath id="clip0_411_224">
<rect width="28" height="28" rx="4" fill="white"/>
</clipPath>
</defs>
</svg>
