<svg width="64" height="64" viewBox="0 0 64 64" fill="none" xmlns="http://www.w3.org/2000/svg">
<rect width="64" height="64" fill="#EB5547"/>
<path fill-rule="evenodd" clip-rule="evenodd" d="M28.8944 24.261C28.5259 23.524 27.4741 23.524 27.1056 24.261L17.7889 42.8945C17.2949 43.8824 16.0935 44.2829 15.1056 43.7889C14.1176 43.2949 13.7172 42.0936 14.2112 41.1056L23.5279 22.4722C25.3705 18.7869 30.6295 18.7869 32.4721 22.4722L40.9597 39.4473C41.1291 39.786 41.4753 40 41.8541 40H48C49.1046 40 50 40.8955 50 42C50 43.1046 49.1046 44 48 44H41.8541C39.9603 44 38.2289 42.93 37.382 41.2361L28.8944 24.261Z" fill="url(#paint0_linear_411_141)"/>
<path fill-rule="evenodd" clip-rule="evenodd" d="M34.6477 35.7546C34.6669 35.8016 34.688 35.8483 34.7111 35.8945L37.382 41.2361C38.2289 42.93 39.9602 44 41.8541 44H48C49.1046 44 50 43.1046 50 42C50 40.8955 49.1046 40 48 40H41.8541C41.8369 40 41.8198 39.9996 41.8027 39.9987C38.7366 39.946 36.0708 38.2505 34.6477 35.7546Z" fill="white"/>
<defs>
<linearGradient id="paint0_linear_411_141" x1="14" y1="42" x2="50" y2="42" gradientUnits="userSpaceOnUse">
<stop stop-color="#365463"/>
<stop offset="1" stop-color="#365463" stop-opacity="0"/>
</linearGradient>
</defs>
</svg>
