<svg width="108" height="16" viewBox="0 0 108 16" fill="none" xmlns="http://www.w3.org/2000/svg">
<path d="M11.8677 5.01597C12.1758 6.55662 12.3859 8.32604 12.438 9.67606C12.4855 10.905 12.4373 6.10688 12.6699 5.82209C13.1397 5.24697 13.8876 5.06888 14.7692 4.9903C14.9785 4.96462 15.1326 4.91326 15.366 4.88681C15.5995 4.86035 15.9076 4.86035 16.2251 4.86035" stroke="white" stroke-linecap="round"/>
<path d="M17.6255 6.72804C17.7282 6.3172 18.0379 5.79742 18.5297 5.30488C19.5552 4.27779 21.8242 5.11891 22.3961 5.50719C22.9741 5.89959 22.761 7.08596 22.5805 7.81505C22.328 8.83488 20.8967 9.47631 20.2734 9.68406C19.963 9.78755 19.342 9.84046 18.539 9.78911C17.6784 9.37516 17.3158 8.95965 17.0824 8.57293C17.003 8.28892 17.003 7.82672 17.3143 7.03928" stroke="white" stroke-linecap="round"/>
<path d="M22.9167 4.23779C23.0194 4.64863 22.9696 5.52789 22.814 6.6935C22.7611 7.49962 22.7097 7.97115 22.6319 8.41C22.6055 8.69479 22.6055 9.10563 22.9167 9.84016" stroke="white" stroke-linecap="round"/>
<path d="M29.14 5.11377C28.365 4.69982 27.3861 4.70418 26.4983 4.8847C25.7783 5.0311 25.3568 5.79042 25.0961 6.41368C24.8238 7.06491 24.7841 8.32705 25.1195 9.21487C25.4249 10.0235 26.4929 10.098 27.7619 10.0996C28.5175 9.78833 28.933 9.53 29.14 9.21954C29.2442 9.06314 29.3469 8.90907 29.4528 8.75034" stroke="white" stroke-linecap="round"/>
<path d="M32.0984 5.32715C32.1497 6.04612 32.2011 6.76509 32.2276 7.54631C32.254 8.32753 32.254 9.14921 32.254 9.99579" stroke="white" stroke-linecap="round"/>
<path d="M32.4095 1.21484C32.2554 1.21484 32.1013 1.21484 32.022 1.29188C31.9426 1.36891 31.9426 1.52297 32.0196 1.60234C32.0967 1.68171 32.2507 1.68171 32.4095 1.52609" stroke="white" stroke-linecap="round"/>
<path d="M35.8567 5.14761C35.5206 5.38027 35.1019 5.90627 34.5884 6.72795C34.5884 7.04542 34.5884 7.35355 34.6148 7.58698C34.6926 7.97448 34.9525 8.44134 35.5244 8.90821C35.8349 9.11518 36.8189 9.46652 38.0175 9.16498C38.6361 9.00936 39.0003 8.8521 39.2329 8.56739C39.4656 8.28261 39.6832 7.97553 39.6982 7.47415C39.7239 6.61901 39.5916 5.87108 39.2547 5.50632C38.9442 5.17018 38.6519 4.78514 38.0829 4.75623C37.0721 4.70487 36.2517 4.87419 35.8567 5.14761Z" stroke="white" stroke-linecap="round"/>
<path d="M40.035 4.08252C39.9323 5.21233 39.8794 6.46197 39.8537 7.55054C39.8281 7.9715 39.7767 8.12556 39.7503 8.41035C39.7238 8.69514 39.7238 9.10598 39.8794 9.68489" stroke="white" stroke-linecap="round"/>
<path d="M53.283 5.17188C53.4884 7.12337 53.6456 8.38546 53.7747 9.67322C53.8525 10.7042 53.9552 12.5016 54.0338 13.5303C54.1124 14.559 54.1638 14.7644 54.2167 15.1316" stroke="white" stroke-linecap="round"/>
<path d="M61.2197 5.17188C60.0821 5.48001 59.1468 6.41373 58.9118 7.13971C58.8316 7.38751 58.8853 7.7583 58.9624 8.02052C59.0966 8.47735 59.5063 8.6469 59.8167 8.77607C60.1483 8.91402 60.7995 9.06241 61.6546 9.01105C62.1727 8.97994 62.4631 8.64846 62.7222 8.4158C63.2068 7.9807 63.0871 6.99265 63.0101 6.16318C62.779 5.74456 62.4662 5.53603 61.976 5.38041C61.6398 5.3275 61.1263 5.3275 60.5972 5.3275" stroke="white" stroke-linecap="round"/>
<path d="M65.1101 4.86035C65.1101 5.57932 65.1101 7.18222 65.1101 8.61316C65.1101 10.3444 65.5241 6.26406 65.9123 5.66647C66.5091 5.27586 67.0274 5.12024 67.6724 5.04243C68.112 5.01597 68.7797 5.01597 69.4675 5.01597" stroke="white" stroke-linecap="round"/>
<path d="M87.5047 6.94408C87.5047 6.84137 87.4019 6.32626 87.1436 5.52326C87.0289 5.1666 86.7826 4.97703 86.4456 4.8712C85.0737 4.4403 84.3953 4.60976 83.7721 4.94512C83.0442 5.33679 82.6835 6.16286 82.3956 6.99154C82.0913 7.8673 82.4719 8.65436 82.7302 8.96482C83.3217 9.67571 83.9784 9.93169 84.783 10.1138C85.4619 10.2674 86.2581 9.9538 86.5686 9.72114C86.5686 9.72114 87.23 9.2725 87.283 9.11377" stroke="white" stroke-linecap="round"/>
<path d="M87.1932 7.09961C86.4743 7.09961 85.7553 7.09961 85.1025 7.15096C84.4496 7.20232 83.8847 7.30503 82.9915 7.41085" stroke="white" stroke-linecap="round"/>
<path d="M95.1616 5.61377C94.4364 7.21823 94.2278 9.59145 94.357 11.031C94.4708 12.2991 94.1251 12.9249 94.0209 13.5481C93.6069 14.12 92.986 14.534 92.0281 14.769C91.6398 14.7954 91.0749 14.7954 90.4929 14.7954" stroke="white" stroke-linecap="round"/>
<path d="M96.4064 7.50613C96.4064 7.3007 96.5604 6.93811 96.8966 6.52338C97.4236 5.87317 99.0924 5.94991 100.139 6.28528C100.54 6.41368 100.659 6.93344 100.737 7.39875C100.831 7.95959 100.661 8.4383 100.428 8.74876C99.9535 9.3825 99.2107 9.47629 97.6832 9.50353C97.3407 9.50963 97.1876 9.42649 97.0569 9.323C96.6149 8.75265 96.355 8.28579 96.2772 7.97532C96.2507 7.81892 96.2507 7.66486 96.2507 7.50613" stroke="white" stroke-linecap="round"/>
<path d="M101.231 5.32715C101.231 6.61881 101.128 7.9696 100.946 8.72125C100.919 9.00604 100.919 9.41688 100.996 9.67988C101.073 9.94288 101.228 10.0456 101.698 10.4627" stroke="white" stroke-linecap="round"/>
<path d="M103.565 5.79443C103.876 8.27348 103.876 10.309 103.851 9.99855C103.756 8.85822 103.823 7.19814 104.212 6.60055C104.808 6.15859 105.275 5.8987 105.74 5.82089C106.05 5.79443 106.512 5.79443 106.989 5.79443" stroke="white" stroke-linecap="round"/>
<path d="M79.7908 2.75537C79.7908 4.35329 79.5544 7.70678 79.5212 9.40681C79.6099 9.79913 79.7873 10.0356 79.9377 10.2461C80.0882 10.4566 80.2064 10.6339 80.5074 11.1749" stroke="white" stroke-linecap="round"/>
<path d="M76.5794 2.5332C76.5794 6.88886 76.4633 7.79396 76.3745 9.31971C76.3443 9.83773 76.2276 10.2291 76.3147 10.6247C76.4017 10.7962 76.5759 10.9083 76.7236 11.0501C76.8714 11.1919 76.9875 11.36 77.283 11.5332" stroke="white" stroke-linecap="round"/>
<path d="M46.0882 5.46849C45.4579 4.83821 44.7656 4.47413 44.1363 4.41444C43.479 4.3521 43.1055 4.59231 42.7999 4.71864C42.5579 4.81871 42.4283 5.05626 42.3415 5.24228C42.2877 5.35777 42.2683 5.48123 42.2946 5.58707C42.3893 5.96869 43.2726 6.22292 43.7061 6.31066C44.0433 6.3789 44.2833 6.42346 45.0109 6.60829C45.4789 6.72718 45.6895 6.99326 46.0074 7.30423C46.1754 7.4685 46.2466 7.7087 46.274 8.1263C46.2894 8.3596 45.9314 8.68914 45.6579 8.89008C45.5044 9.00282 45.333 9.06237 45.0946 9.12245C44.6821 9.22645 43.7748 9.16901 43.1646 9.0568C42.9487 9.0171 42.7737 8.74564 42.5542 8.53972C42.5075 8.49297 42.4681 8.45358 42.4346 8.41359C42.4012 8.3736 42.375 8.3342 42.3479 8.29362" stroke="white" stroke-linecap="round"/>
<path d="M8.88771 3.69341C8.31692 2.854 7.90535 2.37121 7.70211 2.26972C7.55023 2.19387 6.84261 2.06597 5.68244 2.00645C4.51006 1.9463 4.00692 2.31881 3.41247 2.6238C3.14087 2.76315 2.91976 2.94659 2.61579 3.17425C2.13415 3.53497 1.81734 3.98034 1.58077 4.44405C1.17066 5.24796 1.07051 5.99797 1.01964 6.36986C0.909111 7.17783 1.28825 7.89453 1.57798 8.49077C1.77769 8.90178 2.35558 9.3373 2.89102 9.71224C3.58195 10.1961 4.27248 10.1879 4.7568 10.2136C5.22458 10.2384 5.73153 10.2225 6.68795 9.88444C7.01183 9.76997 7.34218 9.47822 7.75705 9.072C8.44021 8.40308 8.6832 7.37664 8.77732 6.9928C8.79567 6.91797 8.78597 6.8323 8.75239 6.78066C8.58603 6.52482 7.21907 6.64407 6.4809 6.68629C6.29521 6.69494 6.02354 6.7453 5.72721 6.82161C5.59875 6.84756 5.51481 6.84756 5.42833 6.84756" stroke="white" stroke-linecap="round"/>
<path d="M53.6326 6.88617C53.7187 6.52337 53.8568 6.31627 53.9694 6.09983C54.1221 5.80649 54.7869 5.45363 55.232 5.21695C55.3445 5.1571 55.5172 5.12145 55.7502 5.13858C56.2834 5.17776 56.7966 5.79412 57.0834 6.18418C57.2693 6.4371 57.3177 7.56923 57.2575 8.22607C57.2323 8.50105 56.9035 8.70176 56.4808 8.96128C55.7581 9.40491 55.1388 9.13568 54.8879 9.01474C54.6086 8.88016 54.3084 8.68619 54.1005 8.44432C53.9269 8.18429 53.8236 7.97719 53.7021 7.54561C53.6845 7.40677 53.6845 7.25261 53.6845 7.09379" stroke="white" stroke-linecap="round"/>
<path d="M94.6785 7.2439C93.7689 6.09801 93.3985 5.82836 93.1112 5.73476C92.869 5.65588 92.6225 5.67557 92.0164 5.82659C91.627 5.92362 90.9236 6.44759 90.2953 7.3504C90.0415 7.715 90.1253 8.2193 90.2007 8.59165C90.2959 9.06199 90.5968 9.24934 90.7906 9.5195C91.0447 9.87379 91.724 10.0426 92.6096 10.0603C93.1787 10.0717 93.6151 9.48813 93.91 9.20963C94.1888 8.91392 94.4913 8.27799 94.569 7.46549C94.5606 7.3289 94.5439 7.26211 94.4761 7.09213" stroke="white" stroke-linecap="round"/>
</svg>
