<svg width="8" height="8" viewBox="0 0 8 8" fill="none" xmlns="http://www.w3.org/2000/svg">
<path d="M1.86431 3.78743C2.5466 4.02725 3.26639 4.1427 3.98945 4.12829C4.71254 4.1426 5.43232 4.02706 6.1146 3.78714C6.64717 3.57943 6.83603 3.34857 6.83603 3.21572V2.2C6.64983 2.32469 6.45007 2.42783 6.2406 2.50743C5.51872 2.76592 4.75611 2.89194 3.98945 2.87943C3.22287 2.8917 2.46033 2.76589 1.73831 2.508C1.52873 2.42839 1.32895 2.32506 1.14288 2.2V3.21429C1.14288 3.34971 1.33231 3.57943 1.86431 3.78743ZM1.86431 5.70314C2.10534 5.79506 2.35389 5.8659 2.60717 5.91486C3.06261 6.00296 3.52557 6.04631 3.98945 6.04429C4.45332 6.04641 4.91629 6.00315 5.37174 5.91514C5.62501 5.86618 5.87356 5.79535 6.1146 5.70343C6.64717 5.49571 6.83603 5.26486 6.83603 5.132V4.16343C6.68212 4.25604 6.52035 4.33492 6.3526 4.39914C5.59425 4.66765 4.7938 4.79762 3.98945 4.78286C3.18502 4.79716 2.38457 4.6667 1.62631 4.39772C1.45863 4.33332 1.29688 4.25446 1.14288 4.162V5.13143C1.14288 5.26457 1.33231 5.49457 1.86431 5.70314ZM3.98945 8C5.56088 8 6.83603 7.50172 6.83603 6.88743V6.07686C6.69601 6.16126 6.54933 6.23407 6.39745 6.29457L6.3526 6.31257C5.59439 6.58187 4.79394 6.71262 3.98945 6.69857C3.18494 6.71302 2.38441 6.58226 1.62631 6.31257C1.61088 6.30686 1.59603 6.30029 1.58145 6.29457C1.42958 6.23407 1.2829 6.16126 1.14288 6.07686V6.88743C1.14288 7.50172 2.41803 8 3.98945 8Z" fill="#47afeb"/>
<path d="M3.98945 2.22514C5.56157 2.22514 6.83603 1.72703 6.83603 1.11257C6.83603 0.498115 5.56157 0 3.98945 0C2.41734 0 1.14288 0.498115 1.14288 1.11257C1.14288 1.72703 2.41734 2.22514 3.98945 2.22514Z" fill="#47afeb"/>
</svg>
