<svg width="84" height="15" viewBox="0 0 84 15" fill="none" xmlns="http://www.w3.org/2000/svg">
<path d="M1.28296 2.08936C1.38567 3.21917 1.48994 5.18778 1.54207 7.39138C1.54285 8.20839 1.49149 8.41381 1.46504 8.75073C1.43858 9.08765 1.43858 9.54984 1.43858 10.026" stroke="white" stroke-linecap="round"/>
<path d="M1.43855 10.2478C1.33429 7.81229 1.54126 6.98283 2.05871 6.41092C2.29194 6.15314 2.68197 6.0989 3.1465 5.94328C3.88086 5.69726 4.54943 5.99308 4.85989 6.22573C5.52515 6.72426 5.58742 7.7018 5.61465 9.43698C5.58898 9.8307 5.53762 10.0361 5.51117 10.219C5.48471 10.4018 5.48471 10.5559 5.48471 10.7146" stroke="white" stroke-linecap="round"/>
<path d="M7.66343 8.38055C7.66343 7.867 7.92021 7.34567 8.3863 6.93093C8.97814 6.4043 9.83902 6.41038 10.9789 6.38315C11.2423 6.37685 11.3952 6.46018 11.526 6.56367C12.0917 7.01154 12.1765 8.01172 12.0994 8.919C12.057 9.4187 11.5555 9.62396 11.2451 9.88307C10.7403 10.3043 10.0009 10.1951 8.73177 10.1966C8.26299 10.1972 7.97623 9.83405 7.71712 9.6014C7.61208 9.47145 7.56072 9.31739 7.53427 9.16099C7.50781 9.00459 7.50781 8.85052 7.50781 8.69179" stroke="white" stroke-linecap="round"/>
<path d="M12.799 5.5791C12.5936 7.13065 12.0738 8.37717 11.8918 9.02612C11.8653 9.41361 11.968 9.77932 12.2007 10.0898C12.3306 10.2462 12.4847 10.4003 12.799 10.7146" stroke="white" stroke-linecap="round"/>
<path d="M18.557 6.35753C18.2489 6.15211 17.2171 6.04629 15.8686 6.12332C15.3878 6.15079 15.3419 6.35442 15.2897 6.51082C15.2376 6.66722 15.1862 6.82129 15.1855 6.97769C15.1847 7.13408 15.236 7.28815 15.3395 7.41887C15.7686 7.96087 16.6335 8.01646 17.3097 8.24989C17.9542 8.4724 17.9859 9.15716 18.038 9.46763C18.0639 9.62187 17.9874 9.77809 17.8583 9.90881C17.5715 10.199 17.158 10.2994 16.6421 10.3772C15.7154 10.4037 14.9279 10.1983 14.591 9.80999C14.4595 9.62714 14.4081 9.47307 14.3552 9.31434" stroke="white" stroke-linecap="round"/>
<path d="M21.5136 3.40039C21.6692 5.77673 21.5665 8.06592 21.3845 8.76622C21.358 9.30778 21.4607 9.77931 21.6677 10.0898C21.772 10.2462 21.8747 10.4002 22.2917 10.8702" stroke="white" stroke-linecap="round"/>
<path d="M20.2688 5.89062H22.9144" stroke="white" stroke-linecap="round"/>
<path d="M25.0929 7.91369C25.0929 7.50285 25.1956 7.13714 25.4283 6.85235C25.8795 6.29998 26.646 6.15206 28.0443 6.12327C28.9549 6.10452 29.0861 7.28809 29.2682 8.0662C29.4467 8.82898 28.778 9.46679 28.2077 10.0387C27.9622 10.2848 27.0708 10.248 26.008 10.171C25.2501 9.62708 24.8859 9.16022 24.8081 8.7984C24.7817 8.59064 24.7817 8.33387 24.9373 7.91369" stroke="white" stroke-linecap="round"/>
<path d="M30.0729 5.89062C29.8675 6.81502 29.7103 7.70206 29.6325 8.40158C29.606 8.84432 29.5033 9.15712 29.3477 9.57029C29.2948 9.8294 29.2948 10.1889 29.4504 10.7149" stroke="white" stroke-linecap="round"/>
<path d="M42.9518 5.89062C42.9518 6.30147 42.9518 6.97531 42.9261 7.75263C42.9004 8.06777 42.8491 8.22183 42.8226 8.60933C42.7962 8.99683 42.7962 9.61309 43.1074 10.248" stroke="white" stroke-linecap="round"/>
<path d="M44.9136 7.91384C45.4831 6.67043 45.9998 6.15221 46.6231 5.89154C47.3546 5.58561 48.3341 5.83786 48.9317 6.22613C49.24 6.42643 49.271 7.23378 49.2196 8.16673C49.1897 8.71027 48.703 9.10435 48.2369 9.51908C47.68 10.0145 46.6316 9.93692 45.6466 9.85989C45.2709 9.83052 45.175 9.62879 45.0964 9.47239C45.0178 9.31599 44.9665 9.16193 44.94 8.9285C44.9136 8.69506 44.9136 8.38693 44.9136 8.06947" stroke="white" stroke-linecap="round"/>
<path d="M50.2046 4.95703C49.7393 6.81826 49.4265 8.4803 49.2973 9.72216C49.2709 11.3686 49.2195 12.5809 49.1417 13.0198C49.1152 13.3046 49.1152 13.7154 49.1152 14.1387" stroke="white" stroke-linecap="round"/>
<path d="M56.1794 5.5791C56.1281 6.29807 56.0767 7.01704 56.0246 7.59284C55.9724 8.16864 55.9211 8.57948 55.8946 9.07358C55.8682 9.56768 55.8682 10.1326 55.8682 10.7146" stroke="white" stroke-linecap="round"/>
<path d="M52.4445 5.89062C52.0819 6.66562 51.9776 8.42103 52.313 9.41623C52.5209 10.0334 53.6334 9.88387 54.9297 9.85975C55.1927 9.78272 55.2954 9.62865 55.3997 9.47225C55.504 9.31585 55.6067 9.16179 55.8681 8.69181" stroke="white" stroke-linecap="round"/>
<path d="M59.4474 5.89062C59.242 6.30147 59.0848 6.82124 59.007 7.49353C58.9806 8.26852 58.9292 8.84588 58.8514 9.33608C58.825 9.67222 58.825 10.1858 58.825 10.7149" stroke="white" stroke-linecap="round"/>
<path d="M59.6033 2.71184C59.6033 2.66048 59.6033 2.60913 59.706 2.37725C59.8087 2.14537 60.0141 1.73453 60.3814 1" stroke="white" stroke-linecap="round"/>
<path d="M74.054 5.13353C74.2263 5.17831 74.32 5.32973 74.4138 5.48116C74.4593 5.65087 74.4684 5.78772 74.4138 5.89062C74.3592 5.99353 74.2454 6.05932 74.0829 6.05932C73.7136 6.05932 73.628 6.07804 73.5 6C73.372 5.92196 73.378 5.75279 73.378 5.62295C73.378 5.49312 73.3616 5.36051 73.4976 5.25786C73.6337 5.15521 73.8817 5.08875 74.054 5.13353Z" stroke="white" stroke-width="1.1" stroke-linecap="round"/>
<path d="M82.4399 6.90326C82.2073 8.03983 81.0154 9.23488 79.0152 10.2591C76.1611 11.7206 74.0347 10.9491 72.9824 10.8762C72.7578 10.855 72.5806 10.7951 72.4007 10.7342C72.2209 10.6734 72.0437 10.6134 71.6685 10.4405" stroke="white" stroke-linecap="round"/>
<path d="M42.6867 7.3783C42.5767 7.14211 42.2591 6.66496 42.0765 6.4821C41.8023 6.20759 41.0257 6.23543 40.4341 6.31448C40.208 6.34469 39.9895 6.45734 39.7669 6.56829C39.4551 6.7237 39.18 6.99639 38.9179 7.25806C38.5701 7.60524 38.5124 7.94878 38.5041 8.74022C38.4995 9.17151 39.0333 9.62975 39.5655 9.9488C40.188 10.322 40.9534 10.2355 41.4708 10.1407C41.8968 10.0627 42.241 9.63356 42.4479 9.36356C42.6643 9.08118 42.702 8.82403 42.7817 8.56188C42.8134 8.41164 42.8296 8.07926 42.8217 7.67473C42.8139 7.52164 42.7981 7.47449 42.782 7.3783" stroke="white" stroke-linecap="round"/>
<path d="M77.283 4.58637C77.3296 4.43692 77.4414 4.25038 77.5635 4.10457C77.6935 3.94922 77.8443 3.81886 78.0125 3.72994C78.3222 3.56635 78.537 3.50983 78.9808 3.5C79.2585 3.57473 79.3894 3.64974 79.5019 3.7152C79.5302 3.73402 79.558 3.75256 79.6147 3.82785" stroke="white" stroke-linecap="round"/>
</svg>
